<svg xmlns="http://www.w3.org/2000/svg" x="0px" y="0px" width="700px" height="500px" viewBox="0 0 512 512">
<path fill="#FFFFFF" stroke="#FFFFFF" fill-opacity="1" stroke-opacity="0" d="M578.067,39.719H305.523l-68.149,68.149v272.544l68.149,68.15h272.546
		l68.15-68.15V107.868L578.067,39.719z M388.001,243.16h14.282l46.237,49.632v39.026H346.005v-16.613l41.996-16.545V243.16z
		 M440.814,264.087l29.764-27.714l11.313-2.545l48.43-44.047l6.575,8.272l-46.098,44.118l-4.524,9.757l-30.825,27.926
		L440.814,264.087z M356.539,237.363c6.575-0.212,13.01,4.242,18.665,7.566v12.018c-4.879-5.089-11.595-7.918-18.665-7.777
		c-13.928,0-25.162,11.313-25.162,25.241c-0.142,12.867,9.466,23.756,22.193,25.24l-16.686,5.373
		c-10.923-6.292-17.576-18.029-17.342-30.613C319.732,255.604,337.733,237.575,356.539,237.363z M272.109,403.015l14.741-15.625
		h14.748l14.734,15.625H272.109z M404.333,403.015l14.775-15.625h14.919l14.776,15.625H404.333z M438.34,361.795l-4.313,13.646
		h-14.919l-8.13-13.646h-76.074l-25.148,19.303l-8.159-5.657h-9.523l30.606-30.4h143.798l75.296,30.4h-11.313l-6.787,6.293
		l-68.792-19.938H438.34z M519.079,403.015l13.646-15.625h15.837l13.646,15.625H519.079z M546.44,191.125l-7.282-9.474l14.07-18.1
		l12.018,13.716L546.44,191.125z M491.012,194.448l-9.12,15.201l-48.995,46.237l-16.12-17.462l46.874-49.207l17.888-5.727
		l77.841-71.302l9.474,10.902L491.012,194.448z M577.549,116.706l-9.756-11.687l27.219-31.751l16.473,18.94L577.549,116.706z"/>
</svg>
