<svg xmlns="http://www.w3.org/2000/svg" x="0px" y="0px" width="700px" height="500px" viewBox="0 0 512 512">
<path fill="#FFFFFF" stroke="#FFFFFF" fill-opacity="1" stroke-opacity="0" d="M489.541,40.672H210.456l-69.785,69.785v279.085l69.785,69.786h279.087
	l69.786-69.786V110.457L489.541,40.672z M184.145,387.234V343.22c88.807-0.42,169.84-30.93,239.256-80.543
	c-69.137-48.914-150.868-77.464-239.256-77.814v-44.016c84.538,1.89,185.864,42.126,258.64,116.581l4.688,4.688l-4.688,4.618
	C368.959,340.42,281.068,386.675,184.145,387.234z M196.278,291.717v-55.422h15.625v55.422H196.278z M224.982,291.717v-55.422
	h71.131v55.422H224.982z M311.158,292.137v-56.191c33.519,0,64.448,10.146,90.27,27.642
	C375.536,281.22,344.888,292.137,311.158,292.137z M354.823,416.274h-89.64c88.87-45.625,159.547-97.477,203.981-154.298
	c-53.042-67.737-145.201-127.722-261.606-178.251h110.737C391.701,133.493,450.132,192,484.561,258.968l1.539,3.009l-1.539,2.939
	C455.8,320.968,410.875,371.56,354.823,416.274z M481.9,416.274h-48.563c51.782-52.202,73.125-111.682,67.736-170.183
	c-5.389-57.591-36.878-114.607-92.789-162.366h61.159C525.076,180.804,532.494,312.221,481.9,416.274z"/>
</svg>
