<svg xmlns="http://www.w3.org/2000/svg" x="0px" y="0px" width="700px" height="500px" viewBox="0 0 512 512">
	<path fill="#FFFFFF" stroke="#FFFFFF" fill-opacity="1" stroke-opacity="0" d="M441.208,175.973l7.638,7.655l-66.375,66.375l-7.636-7.637L441.208,175.973z M646.22,107.868v272.544
		l-68.15,68.15H305.523l-68.149-68.15V107.868l68.149-68.149h272.544L646.22,107.868z M525.582,221.912
		c-4.303-2.643-8.582-5.475-12.823-8.494c-9.944,2.473-20.094,1.323-26.826-5.409c-6.758-6.759-7.893-16.962-5.379-26.946
		c2.513-9.983,8.599-20.35,17.632-29.383c11.854-11.855,25.949-18.782,38.615-18.883c6.63-0.054,13.08,1.964,17.729,6.614
		c6.763,6.762,7.89,16.971,5.373,26.958c-0.219,0.869-0.474,1.741-0.746,2.614c2.707,3.868,5.257,7.77,7.658,11.689l0.611-0.61
		c7.013-7.015,9.246-14.931,8.305-23.217c-0.94-8.28-5.355-16.894-12.341-23.887l-0.018-0.017l-8.126-8.018
		c-6.671-6.076-14.549-9.906-22.131-10.767c-8.229-0.934-16.104,1.301-23.127,8.324l-53.49,53.491l-7.637-7.655l53.471-53.472
		c2.396-2.395,4.959-4.386,7.638-6.026l-204.535,0.001c0,51.849,0,207.395,0,207.395c1.921-4.787,4.884-9.353,8.958-13.428
		l52.767-52.784l7.655,7.655l-52.786,52.783c-7.024,7.025-9.258,14.898-8.324,23.128c0.934,8.228,5.356,16.811,12.359,23.813
		l-0.108,0.109l6.622,6.531l0.018,0.02c6.982,6.979,15.585,11.327,23.869,12.196c7.947,0.834,15.595-1.271,22.409-7.649
		c-4.076-2.481-8.131-5.13-12.153-7.949c-0.498,0.144-0.997,0.287-1.494,0.411c-9.988,2.513-20.195,1.38-26.955-5.38
		c-6.762-6.761-7.889-16.971-5.372-26.958c2.518-9.987,8.608-20.356,17.641-29.39c11.854-11.854,25.939-18.763,38.599-18.866
		c6.629-0.053,13.08,1.965,17.729,6.616c6.761,6.761,7.893,16.968,5.381,26.955c-0.115,0.456-0.248,0.913-0.377,1.37
		c2.831,4.052,5.491,8.139,7.985,12.247l32.638-32.641c-4.14-2.521-8.258-5.215-12.343-8.086c-0.365,0.103-0.731,0.21-1.096,0.303
		c-9.987,2.512-20.195,1.379-26.955-5.381c-6.761-6.761-7.893-16.968-5.38-26.956c2.511-9.988,8.597-20.358,17.63-29.392
		c11.857-11.857,25.957-18.763,38.616-18.866c6.631-0.054,13.082,1.965,17.731,6.615c6.76,6.76,7.893,16.968,5.38,26.956
		c-0.148,0.589-0.315,1.179-0.489,1.77c2.785,3.996,5.407,8.024,7.863,12.074L525.582,221.912z M452.981,219.375L452.981,219.375
		c-6.795,2.419-14.279,7.074-20.929,13.725c-6.852,6.853-11.606,14.6-13.964,21.561c27.349,26.324,57.799,43.624,86.263,51.2
		C496.654,277.394,479.244,246.629,452.981,219.375z M379.484,293.084c-6.884,2.387-14.504,7.088-21.263,13.848
		c-6.748,6.748-11.446,14.355-13.834,21.231c27.374,26.38,57.865,43.712,86.365,51.299
		C423.063,351.031,405.688,320.312,379.484,293.084z M578.158,233.214c-7.78-28.77-25.481-59.888-52.213-87.356
		c-6.566,2.503-13.71,7.06-20.08,13.43c-7.156,7.158-12.005,15.276-14.241,22.468C519.043,208.226,549.601,225.611,578.158,233.214z
		"/>
</svg>
