<svg xmlns="http://www.w3.org/2000/svg" x="0px" y="0px" width="700px" height="500px" viewBox="0 0 512 512">
<path fill="#FFFFFF" stroke="#FFFFFF" fill-opacity="1" stroke-opacity="0" d="M578.067,39.719H305.523l-68.149,68.149v272.544l68.149,68.15h272.546
		l68.15-68.15V107.868L578.067,39.719z M470.821,109.138l32.681-56.431l51.858,30.033l-32.681,56.43l-18.026,11.868l-35.152-20.359
		L470.821,109.138z M464.856,143.969l30.584,17.711l-21.867,37.761c-2.313-0.546-4.719-0.846-7.19-0.846
		c-0.712,0-1.414,0.033-2.114,0.08l-23.282-13.484L464.856,143.969z M374.063,199.433l5.8,3.766l8.521,5.523l25.865-43.105
		l3.557-5.932l11.857,7.117l-3.556,5.927l-36.878,61.464l-3.558,5.931l-11.857-7.116l3.557-5.929l3.893-6.49l-8.925-5.792
		l-5.802-3.761L374.063,199.433z M325.016,359.94c6.446,0,11.524,5.078,11.524,11.524c0,6.447-5.078,11.524-11.524,11.524
		c-6.447,0-11.525-5.077-11.525-11.524C313.49,365.019,318.569,359.94,325.016,359.94z M410.297,407.574H382.73
		c-4.376-3.336-9.764-5.312-15.802-6.731c-7.214-1.697-15.353-2.488-23.517-2.488c-8.163,0-16.323,0.794-23.567,2.487
		c-6.093,1.423-11.53,3.408-15.959,6.734h-27.273v-23.05l26.71-0.002c4.459,7.347,12.536,12.293,21.693,12.293
		c9.155,0,17.233-4.946,21.692-12.293h63.589V407.574z M374.396,370.695H350.35c-0.196-6.477-2.863-12.369-7.086-16.762
		l59.988-103.588l30.585,17.713L374.396,370.695z M446.085,259.173l-41.225-23.874l23.871-41.222l18.76,10.863
		c-7.641,5.763-12.608,14.911-12.608,25.156c0,10.513,5.233,19.863,13.216,25.595L446.085,259.173z M448.711,230.095
		c0-9.842,7.829-17.67,17.672-17.67c9.841,0,17.671,7.829,17.671,17.67c0,9.842-7.83,17.671-17.671,17.671
		C456.54,247.767,448.711,239.938,448.711,230.095z M487.328,253.562l71.85,129.427h-12.301l-68.682-123.713
		C481.567,257.898,484.651,255.956,487.328,253.562z M606.982,407.576h-72.221v-10.758h72.221V407.576z"/>
</svg>
