<svg xmlns="http://www.w3.org/2000/svg" x="0px" y="0px" width="700px" height="500px" viewBox="0 0 512 512">
<path fill="#FFFFFF" stroke="#FFFFFF" fill-opacity="1" stroke-opacity="0" d="M578.067,39.719H305.523l-68.149,68.149v272.544l68.149,68.15h272.546
		l68.15-68.15V107.868L578.067,39.719z M492.408,79.847l27.937,16.147l4.952,27.937c30.907,12.611,56.793,36.375,71.787,67.919
		c-34.515,2.688-68.039-7.851-94.421-28.149l-27.087,9.832h-0.072l-28.008-16.126c10.114-7.285,18.39-12.59,28.716-20.511
		c4.314-7.398,8.558-14.796,12.872-22.194L492.408,79.847z M527.206,268.66c-13.085-10.751-20.864-26.099-21.643-43.356
		c-7.639-10.255-19.238-24.684-31.332-37.203l12.872-4.668c10.114,10.468,19.521,21.359,28.009,32.605
		c16.479,9.124,27.017,24.401,29.917,42.366c-4.527-5.517-10.609-9.76-18.813-12.094C524.164,254.586,524.73,261.94,527.206,268.66z
		 M472.039,304.589c-34.02-6.294-63.654-25.178-83.883-51.56l-28.716,2.476l-22.844-22.845c10.892-4.031,22.42-8.275,32.958-12.377
		c6.012-6.082,12.095-12.235,18.178-18.177l12.165-32.817l22.845,22.845l-2.405,28.291
		C446.859,240.582,465.744,270.287,472.039,304.589z M408.809,76.338c7.992,3.735,15.56,7.801,22.846,12.094
		c17.823,0.375,33.595,8.262,44.558,21.756c-6.648-2.51-14.004-3.14-22.278-1.032c2.334,8.155,6.506,14.287,12.022,18.799
		c-17.327-2.836-32.252-12.865-41.446-28.396c-15.913-9.379-33.17-17.463-53.257-23.22H408.809z M332.756,76.338
		c35.102,14.995,74.709,38.497,110.921,67.559l-11.528,8.204c-47.387-37.316-100.326-65.196-138.767-75.763H332.756z
		 M274.314,76.338h1.789c15.836,29.847,34.48,59.991,62.969,85.594c17.116,4.951,30.271,16.621,37.415,32.535
		c-5.8-4.173-12.802-6.719-21.289-6.79c0.142,8.487,2.617,15.489,6.79,21.289c-16.055-7.214-27.796-20.723-32.726-38.122
		c-23.786-21.572-40.873-46.037-54.948-70.402V76.338z M314.622,317.179c-16.607-11.67-30.37-25.745-40.308-43.144v-35.151
		c7.858,30.907,25.228,52.337,50.421,69.242c17.095,0.849,32.159,8.629,42.769,21.713c-6.648-2.546-14.074-3.183-22.35-1.062
		c2.334,8.135,6.577,14.288,12.094,18.814C339.143,344.621,323.731,333.87,314.622,317.179z M393.956,383.38l-27.089,9.831
		l-28.008-16.196c9.548-6.72,19.45-13.651,28.645-20.441c4.243-7.426,8.559-14.923,12.872-22.207l3.254-34.869l28.008,16.125
		l4.951,27.938c30.907,12.589,56.794,36.354,71.718,67.968C453.791,414.217,420.337,403.678,393.956,383.38z M608.825,389.533
		c-31.262-14.924-55.025-40.811-67.687-71.577l-28.36-5.021l-16.196-28.008c11.599-1.062,23.692-2.052,35.08-3.396
		c7.427-4.243,14.781-8.559,22.208-12.802l20.299-28.573l16.126,28.008l-9.69,26.664
		C601.116,321.14,611.654,354.735,608.825,389.533z"/>
</svg>
