<svg xmlns="http://www.w3.org/2000/svg" x="0px" y="0px" width="700px" height="500px" viewBox="0 0 512 512">
<path fill="#FFFFFF" stroke="#FFFFFF" fill-opacity="1" stroke-opacity="0" d="M383.664,160.916l34.242,26.299c-1.404,1.008-2.8,2.071-4.186,3.175
		l-31.59-27.557C382.65,162.196,383.169,161.558,383.664,160.916L383.664,160.916z M462.52,221.479l-34.49-26.493v0
		c-1.665,1.089-3.333,2.272-4.995,3.528l35.114,30.631C459.774,226.563,461.244,223.998,462.52,221.479z M383.205,137.385
		c2.551-7.312,1.707-11.923-0.125-13.76c-1.032-1.033-2.935-1.752-5.702-1.73v0.001c-2.153,0.015-4.831,0.479-8.029,1.593
		c-2.795,0.973-5.836,2.409-8.98,4.268l20.253,15.556C381.684,141.256,382.551,139.265,383.205,137.385z M372.989,154.856
		c0.355-0.442,0.718-0.885,1.06-1.33l-21.614-16.6L372.989,154.856z M465.398,188.604c-2.157-2.162-5.525-3.439-9.948-3.501v-0.001
		c-0.295-0.004-0.593-0.002-0.897,0.004c-2.921,0.065-6.268,0.638-10,1.804c-1.57,0.49-3.19,1.096-4.842,1.789l27.517,21.134
		C470.215,199.583,469.081,192.293,465.398,188.604z M573.207,274.282c-3.146-3.139-7.933-4.892-14.024-4.965
		c-0.407-0.006-0.817-0.004-1.235,0.005c-3.328,0.082-7.02,0.643-11.021,1.725l30.789,23.648
		C579.107,285.509,577.381,278.447,573.207,274.282z M299.862,131.855c-2.076,6.757-1.182,11.137,0.855,13.169
		c2.035,2.032,6.437,2.929,13.211,0.84c0.496-0.153,1.003-0.327,1.513-0.509l-14-17.68
		C300.805,129.115,300.273,130.515,299.862,131.855z M341.37,158.597l13.605,17.184c0.296-0.428,0.6-0.855,0.904-1.281
		L341.37,158.597z M511.301,275.511c3.893-2.81,7.832-5.324,11.773-7.522l-50.784-39.005c-1.464,2.742-3.105,5.489-4.898,8.224
		L511.301,275.511z M436.221,311.592c2.841,2.849,7.558,4.259,13.795,3.701l-17.008-21.479
		C431.483,302.127,432.839,308.204,436.221,311.592z M520.718,283.727l45.406,39.611c3.419-5.463,6.155-10.878,8.137-16.033
		l-40.586-31.174C529.423,278.209,525.066,280.755,520.718,283.727z M646.22,107.868v272.544l-68.15,68.15H305.523l-68.149-68.15
		V107.868l68.149-68.149h272.544L646.22,107.868z M595.492,348.952l-20.118-17.55c3.551-5.479,6.521-11.002,8.85-16.447
		l11.268,8.652v-15.259l-7.111-5.463c3.676-14.385,2.398-28.171-6.623-37.172c-9.821-9.8-25.282-10.418-40.953-5.486
		c-1.803,0.565-3.621,1.218-5.447,1.932l-57.963-44.519c0.537-1.479,1.025-2.947,1.451-4.404
		c3.665-12.565,3.208-25.082-4.878-33.184c-8.085-8.103-20.635-8.569-33.024-4.696c-3.961,1.237-7.997,2.93-12.036,5.043
		l-38.539-29.601c1.752-3.167,3.187-6.328,4.269-9.428c3.348-9.605,3.604-19.687-2.989-26.294
		c-6.592-6.607-16.674-6.362-26.276-3.021c-4.997,1.739-10.149,4.387-15.247,7.832L311.79,90.446h-23.688v20.385l5.055,6.382
		c-2.099,3.698-3.74,7.425-4.865,11.088c-0.068,0.22-0.125,0.442-0.188,0.664v18.418c0.902,2.28,2.232,4.379,4.064,6.208
		c6.407,6.395,16.116,6.681,25.329,3.841c1.913-0.589,3.843-1.327,5.778-2.188l25.191,31.811c-1.249,2.666-2.296,5.323-3.115,7.944
		c-3.465,11.08-3.096,22.446,4.281,29.839c7.378,7.39,18.734,7.766,29.768,4.32c0.633-0.198,1.27-0.413,1.905-0.635l42.359,53.49
		c-0.343,1.001-0.67,1.998-0.965,2.986c-3.983,13.38-3.556,26.614,4.955,35.14c7.64,7.655,19.11,8.79,30.902,5.937l56.825,71.758
		h15.44l-1.499-1.893c2.152-6.43,5.531-13.376,10.021-20.371l20.314,22.264h35.834V348.952z M470.661,321.866l49.863,62.966
		c2.65-6.162,6.129-12.398,10.342-18.553l-47.144-51.667C479.391,317.48,475.008,319.914,470.661,321.866z M397.584,220.208
		L397.584,220.208c-1.65,1.107-3.312,2.142-4.976,3.094l36.522,46.122c1.552-2.971,3.305-5.95,5.221-8.922L397.584,220.208z
		 M442.84,269.804L442.84,269.804c-2.079,3.453-3.873,6.865-5.352,10.171l25.376,32.045c4.045-1.608,8.289-3.793,12.566-6.495
		L442.84,269.804z M364.274,183.701c-0.467,0.705-0.921,1.411-1.353,2.113l22.052,27.847c1.426-0.766,2.871-1.621,4.32-2.541
		L364.274,183.701L364.274,183.701z M357.115,197.979c-0.07,0.212-0.148,0.426-0.213,0.635c-2.705,8.649-1.683,14.689,1.297,17.675
		l0.001,0.001c2.672,2.676,7.792,3.761,15.017,2.022L357.115,197.979L357.115,197.979z"/>
</svg>
