<svg xmlns="http://www.w3.org/2000/svg" x="0px" y="0px" width="700px" height="500px" viewBox="0 0 512 512">
<path fill="#FFFFFF" stroke="#FFFFFF" fill-opacity="1" stroke-opacity="0" d="M578.067,39.719H305.523l-68.149,68.149v272.544l68.149,68.15h272.546
		l68.15-68.15V107.868L578.067,39.719z M351.106,106.976l-28.146,16.25l-5.652-9.79l28.145-16.25L351.106,106.976z M333.217,75.992
		l5.878,10.181l-28.145,16.25l-15.259-26.43H333.217z M287.538,170.639c12.76-19.325,36.273-33.222,55.853-44.525
		c19.578-11.304,43.371-24.721,66.485-26.109c1.373-0.082,2.745-0.127,4.116-0.131c20.566-0.056,40.996,9.156,60.521,40.274
		L289.983,246.687C271.652,212.053,275.421,188.992,287.538,170.639z M301.87,267.561l-5.652-9.788L480.997,151.09l5.651,9.789
		L301.87,267.561z M412.938,218.12l59.525,104.732l-11.055,6.285l-59.483-104.657L412.938,218.12z M309.325,277.939l11.701-6.756
		v0.002l9.585,53.014l-12.514,2.262L309.325,277.939z M331.437,412.289l-8.041-54.839l12.583-1.844h0l8.31,56.683H331.437z
		 M376.526,412.289l-41.485-149.194l11.375-6.566v-0.002l43.309,155.763H376.526z M417.007,412.289l-43.475-117.076l11.923-4.427
		v0.002l45.115,121.501H417.007z M459.89,412.289l-78.622-164.496l11.474-5.484l81.245,169.98H459.89z M508.43,412.289
		l-34.372-58.493l10.965-6.443l38.156,64.937H508.43z M567.965,412.289L450.724,254.06l10.219-7.571l122.85,165.8H567.965z
		 M606.256,373.395L442.254,201.194l11.332-6.542l152.67,160.304V373.395z M493.228,216.614l8.016-9.873l75.973,61.682l-8.015,9.873
		L493.228,216.614z M606.256,250.979l-124.234-72.744l12.67-7.317v0.001l111.564,65.324V250.979z"/>
</svg>
